# xmcd
#
# Track frame offsets:
#	150
#	18900
#	39244
#	53390
#	77767
#	92846
#	111276
#	135193
#	151224
#	161307
#	184136
#	203467
#
# Disc length: 3134 seconds
#
# Revision: 2
# Processed by: cddbd v1.5.2PL0 Copyright (c) Steve Scherf et al.
# Submitted via: audiograbber 1.83.01
#
DISCID=7d0c3c0c
DTITLE=Blues Control - Keep Cool
DYEAR=2006
DGENRE=Blues
TTITLE0=Keep Cool
TTITLE1=Big Legged Woman
TTITLE2=My Way Of Living
TTITLE3=Stormy Monday
TTITLE4=Me And My Crazy Self
TTITLE5=Sometimes I Wish I Wasn't Born
TTITLE6=Something Strange
TTITLE7=Letter To My Girlfriend
TTITLE8=Feelin' Allright
TTITLE9=Slow Blues In 'C'
TTITLE10=Rollin' And Tumblin'
TTITLE11=Voodoo Child
EXTD=
EXTT0=
EXTT1=
EXTT2=
EXTT3=
EXTT4=
EXTT5=
EXTT6=
EXTT7=
EXTT8=
EXTT9=
EXTT10=
EXTT11=
PLAYORDER=
